<?xml version="1.0" encoding="utf-8" ?>
<svg baseProfile="full" height="1080px" version="1.1" width="1080px" xmlns="http://www.w3.org/2000/svg" xmlns:ev="http://www.w3.org/2001/xml-events" xmlns:xlink="http://www.w3.org/1999/xlink"><defs /><path d="M 346,582 L 346,585 L 345,586 L 345,587 L 344,588 L 344,591 L 343,592 L 343,593 L 342,594 L 342,597 L 341,598 L 341,599 L 340,600 L 340,601 L 339,602 L 339,603 L 338,604 L 338,605 L 337,606 L 337,607 L 336,608 L 336,609 L 334,611 L 334,612 L 332,614 L 332,615 L 330,617 L 330,618 L 328,620 L 328,621 L 326,623 L 326,624 L 325,625 L 324,625 L 324,626 L 320,630 L 320,631 L 305,646 L 304,646 L 300,650 L 299,650 L 296,653 L 295,653 L 290,658 L 289,658 L 287,660 L 286,660 L 283,663 L 282,663 L 281,664 L 280,664 L 278,666 L 277,666 L 274,669 L 273,669 L 270,672 L 268,672 L 267,673 L 266,673 L 265,674 L 264,674 L 262,676 L 261,676 L 259,678 L 258,678 L 257,679 L 256,679 L 255,680 L 254,680 L 253,681 L 252,681 L 251,682 L 250,682 L 249,683 L 248,683 L 247,684 L 246,684 L 245,685 L 244,685 L 242,687 L 241,687 L 240,688 L 238,688 L 236,690 L 234,690 L 233,691 L 232,691 L 231,692 L 230,692 L 229,693 L 228,693 L 227,694 L 225,694 L 223,696 L 222,696 L 226,696 L 229,693 L 231,693 L 231,692 L 232,691 L 236,691 L 236,690 L 237,689 L 239,689 L 240,688 L 241,688 L 243,686 L 245,686 L 246,685 L 248,685 L 250,683 L 251,683 L 252,682 L 254,682 L 256,680 L 257,680 L 260,677 L 262,677 L 264,675 L 266,675 L 269,672 L 270,672 L 272,670 L 274,670 L 274,669 L 275,668 L 277,668 L 279,666 L 280,666 L 282,664 L 283,664 L 286,661 L 287,661 L 289,659 L 290,659 L 290,658 L 292,656 L 294,656 L 294,655 L 295,654 L 297,654 L 301,650 L 302,650 L 302,649 L 305,646 L 306,646 L 310,642 L 311,642 L 311,641 L 312,640 L 313,640 L 313,639 L 314,638 L 315,638 L 316,637 L 316,636 L 319,633 L 320,633 L 320,632 L 322,630 L 322,629 L 325,626 L 325,625 L 326,624 L 327,624 L 327,623 L 330,620 L 330,619 L 332,617 L 332,616 L 334,614 L 334,613 L 335,612 L 335,611 L 336,610 L 337,610 L 337,607 L 338,606 L 339,606 L 339,604 L 340,603 L 340,602 L 341,601 L 341,600 L 342,599 L 342,597 L 343,596 L 343,594 L 344,593 L 344,590 L 345,589 L 346,589 Z" fill="white" stroke="black" stroke-width="1" /><path d="M 527,520 L 527,531 L 526,532 L 526,545 L 525,546 L 525,561 L 524,562 L 524,571 L 523,572 L 523,578 L 522,579 L 522,585 L 521,586 L 521,594 L 522,593 L 522,590 L 523,589 L 523,576 L 524,575 L 524,572 L 525,571 L 525,551 L 527,549 Z" fill="white" stroke="black" stroke-width="1" /><path d="M 665,502 L 664,503 L 661,503 L 659,505 L 656,505 L 655,506 L 654,506 L 653,507 L 650,507 L 649,508 L 647,508 L 647,509 L 646,510 L 642,510 L 641,511 L 640,511 L 639,512 L 636,512 L 634,514 L 632,514 L 631,515 L 629,515 L 627,517 L 624,517 L 623,518 L 622,518 L 621,519 L 618,519 L 617,520 L 616,520 L 615,521 L 614,521 L 613,522 L 610,522 L 608,524 L 604,524 L 602,526 L 599,526 L 597,528 L 593,528 L 592,529 L 591,529 L 589,531 L 585,531 L 585,532 L 584,533 L 579,533 L 579,534 L 578,535 L 576,535 L 575,536 L 573,536 L 572,537 L 571,537 L 570,538 L 569,538 L 568,537 L 565,540 L 561,540 L 559,542 L 556,542 L 555,543 L 554,543 L 552,545 L 552,548 L 550,550 L 550,565 L 549,566 L 549,567 L 550,568 L 549,569 L 549,574 L 547,576 L 548,577 L 548,578 L 547,579 L 547,595 L 546,596 L 546,597 L 545,598 L 545,613 L 544,614 L 544,615 L 543,616 L 543,620 L 542,621 L 542,628 L 541,629 L 541,631 L 540,632 L 540,642 L 539,643 L 539,645 L 538,646 L 538,656 L 541,659 L 542,659 L 543,660 L 543,661 L 544,661 L 547,664 L 548,664 L 550,666 L 551,666 L 552,667 L 552,668 L 553,668 L 558,673 L 559,673 L 561,675 L 562,675 L 564,677 L 565,677 L 568,680 L 569,680 L 571,682 L 572,682 L 573,683 L 574,683 L 576,685 L 577,685 L 578,686 L 579,686 L 580,687 L 581,687 L 583,689 L 585,689 L 587,691 L 589,691 L 591,693 L 592,693 L 593,694 L 594,694 L 595,695 L 596,695 L 597,696 L 601,696 L 602,697 L 603,697 L 604,698 L 609,698 L 610,699 L 611,699 L 612,700 L 617,700 L 618,701 L 626,701 L 627,700 L 629,700 L 631,698 L 634,698 L 634,697 L 635,696 L 636,696 L 637,695 L 638,696 L 638,700 L 636,702 L 636,703 L 635,704 L 635,707 L 633,709 L 633,713 L 632,714 L 632,715 L 631,716 L 631,718 L 630,719 L 631,720 L 629,722 L 629,724 L 628,725 L 628,730 L 627,731 L 627,732 L 626,733 L 626,737 L 625,738 L 623,738 L 622,737 L 620,737 L 618,735 L 616,735 L 615,734 L 614,734 L 612,732 L 610,732 L 608,730 L 606,730 L 604,728 L 602,728 L 601,727 L 600,727 L 598,725 L 596,725 L 594,723 L 592,723 L 590,721 L 589,721 L 588,720 L 587,720 L 585,718 L 583,718 L 582,717 L 582,716 L 580,716 L 578,714 L 577,714 L 575,712 L 574,712 L 573,711 L 572,711 L 571,710 L 571,709 L 569,709 L 568,708 L 568,707 L 566,707 L 563,704 L 562,704 L 560,702 L 559,702 L 558,701 L 558,700 L 556,700 L 555,699 L 555,698 L 554,698 L 552,696 L 551,696 L 548,693 L 547,693 L 545,691 L 544,691 L 541,688 L 540,688 L 539,687 L 539,686 L 538,686 L 535,683 L 534,683 L 533,682 L 532,682 L 531,683 L 531,685 L 529,687 L 529,689 L 528,690 L 529,691 L 529,692 L 528,693 L 528,695 L 527,696 L 526,696 L 527,697 L 526,698 L 526,701 L 524,703 L 524,708 L 522,710 L 522,714 L 520,716 L 520,717 L 519,718 L 519,720 L 518,721 L 518,722 L 517,723 L 517,725 L 515,727 L 515,729 L 514,730 L 514,731 L 513,732 L 513,733 L 510,736 L 510,738 L 508,740 L 508,741 L 505,744 L 505,745 L 503,747 L 502,747 L 502,748 L 501,749 L 500,749 L 500,750 L 499,751 L 497,751 L 495,753 L 494,753 L 492,751 L 492,749 L 490,747 L 490,744 L 488,742 L 488,740 L 487,739 L 487,738 L 486,737 L 486,736 L 485,735 L 485,734 L 483,732 L 483,730 L 480,727 L 480,726 L 479,726 L 478,725 L 478,723 L 477,723 L 476,722 L 476,721 L 475,720 L 475,719 L 474,718 L 473,718 L 473,719 L 474,720 L 474,721 L 478,725 L 478,726 L 481,729 L 481,730 L 482,731 L 482,732 L 484,734 L 484,735 L 485,736 L 485,737 L 486,738 L 486,739 L 487,740 L 487,741 L 488,742 L 488,744 L 489,745 L 489,747 L 490,748 L 490,750 L 492,752 L 492,754 L 494,754 L 495,755 L 494,756 L 494,757 L 496,757 L 497,758 L 496,759 L 494,759 L 495,760 L 495,761 L 496,762 L 496,764 L 497,765 L 497,766 L 498,767 L 498,770 L 499,771 L 499,772 L 501,774 L 501,775 L 502,776 L 502,777 L 505,780 L 505,781 L 507,783 L 507,784 L 508,784 L 509,785 L 510,785 L 512,787 L 513,787 L 514,788 L 515,788 L 517,790 L 518,790 L 519,791 L 534,791 L 535,790 L 537,790 L 538,789 L 540,789 L 541,788 L 541,787 L 542,786 L 543,786 L 544,785 L 546,785 L 553,778 L 553,776 L 556,773 L 556,772 L 557,771 L 557,770 L 559,768 L 559,767 L 560,766 L 560,765 L 561,764 L 561,763 L 562,762 L 562,760 L 564,758 L 564,757 L 565,756 L 565,755 L 567,753 L 567,752 L 571,748 L 572,748 L 573,747 L 575,747 L 576,746 L 578,746 L 579,747 L 580,747 L 581,748 L 583,748 L 586,751 L 587,751 L 589,753 L 591,753 L 592,754 L 593,754 L 594,755 L 594,756 L 595,756 L 596,757 L 597,757 L 599,759 L 600,759 L 601,760 L 602,760 L 604,762 L 605,762 L 606,763 L 607,763 L 608,764 L 609,764 L 612,767 L 614,767 L 616,769 L 618,769 L 620,771 L 621,771 L 622,772 L 623,772 L 624,773 L 625,773 L 627,775 L 629,775 L 630,776 L 632,776 L 633,777 L 637,777 L 638,778 L 644,778 L 645,779 L 649,779 L 650,778 L 655,778 L 656,777 L 659,777 L 661,775 L 662,775 L 664,773 L 665,773 L 671,767 L 671,766 L 672,765 L 672,764 L 673,763 L 673,761 L 675,759 L 675,757 L 676,756 L 676,755 L 677,754 L 677,750 L 678,749 L 678,743 L 679,742 L 679,737 L 678,736 L 678,732 L 677,731 L 677,728 L 676,727 L 676,726 L 673,723 L 673,722 L 672,721 L 671,721 L 667,717 L 666,717 L 665,716 L 663,716 L 662,715 L 660,715 L 659,714 L 656,714 L 655,713 L 653,713 L 652,712 L 648,712 L 647,711 L 643,711 L 642,710 L 640,710 L 638,708 L 638,709 L 637,710 L 636,709 L 636,706 L 637,705 L 637,703 L 638,702 L 638,700 L 639,699 L 639,698 L 640,697 L 640,695 L 641,694 L 641,693 L 642,692 L 642,691 L 641,691 L 639,693 L 638,693 L 635,696 L 634,696 L 633,697 L 632,697 L 631,698 L 629,698 L 628,699 L 626,699 L 625,700 L 620,700 L 619,699 L 617,699 L 616,698 L 612,698 L 611,697 L 610,697 L 607,694 L 606,694 L 605,693 L 604,693 L 601,690 L 600,690 L 597,687 L 597,686 L 596,686 L 594,684 L 594,683 L 592,681 L 592,680 L 591,679 L 591,678 L 590,677 L 590,676 L 589,675 L 589,669 L 588,668 L 588,667 L 589,666 L 589,658 L 590,657 L 590,652 L 591,651 L 591,643 L 592,642 L 592,636 L 593,635 L 593,628 L 594,627 L 594,619 L 595,618 L 595,610 L 596,609 L 596,602 L 597,601 L 597,597 L 598,596 L 598,595 L 599,594 L 599,593 L 600,592 L 600,591 L 602,589 L 602,588 L 604,586 L 605,586 L 608,583 L 609,583 L 610,582 L 611,582 L 612,581 L 613,581 L 614,580 L 616,580 L 617,579 L 619,579 L 620,578 L 622,578 L 623,577 L 625,577 L 626,576 L 627,576 L 628,575 L 630,575 L 631,574 L 633,574 L 634,573 L 635,573 L 636,572 L 639,572 L 641,570 L 643,570 L 644,569 L 647,569 L 648,568 L 649,568 L 650,567 L 652,567 L 653,566 L 654,566 L 655,565 L 657,565 L 658,564 L 659,564 L 660,563 L 662,563 L 663,562 L 665,562 L 666,561 L 667,562 L 667,559 L 668,558 L 669,559 L 669,564 L 670,565 L 670,584 L 669,585 L 669,593 L 668,594 L 668,598 L 667,599 L 667,603 L 666,604 L 666,607 L 665,608 L 665,611 L 666,610 L 666,608 L 667,607 L 667,604 L 668,603 L 668,602 L 669,601 L 669,590 L 670,589 L 670,588 L 671,587 L 671,555 L 670,554 L 670,548 L 671,547 L 671,544 L 670,543 L 670,541 L 669,540 L 669,504 L 668,503 L 668,502 Z" fill="white" stroke="black" stroke-width="1" /><path d="M 529,484 L 529,502 L 528,503 L 528,516 L 529,515 Z" fill="white" stroke="black" stroke-width="1" /><path d="M 650,477 L 649,478 L 647,478 L 646,479 L 644,479 L 643,480 L 642,480 L 641,481 L 639,481 L 638,482 L 637,482 L 636,483 L 634,483 L 633,484 L 632,484 L 631,485 L 630,485 L 631,485 L 632,484 L 634,484 L 635,483 L 638,483 L 639,482 L 640,482 L 642,480 L 645,480 L 647,478 L 651,478 L 652,477 Z" fill="white" stroke="black" stroke-width="1" /><path d="M 656,475 L 658,475 Z" fill="white" stroke="black" stroke-width="1" /><path d="M 534,440 L 534,446 L 533,447 L 533,451 L 532,452 L 532,461 L 531,462 L 531,468 L 530,469 L 530,479 L 532,477 L 532,455 L 533,454 L 533,452 L 534,451 Z" fill="white" stroke="black" stroke-width="1" /><path d="M 808,409 L 808,410 Z" fill="white" stroke="black" stroke-width="1" /><path d="M 541,405 L 541,407 L 540,408 L 540,411 L 539,412 L 539,416 L 538,417 L 538,420 L 537,421 L 537,426 L 536,427 L 536,431 L 535,432 L 535,437 L 536,436 L 536,428 L 537,427 L 537,424 L 538,423 L 538,422 L 539,421 L 539,413 L 541,411 Z" fill="white" stroke="black" stroke-width="1" /><path d="M 545,389 L 545,391 L 544,392 L 544,395 L 543,396 L 543,399 L 542,400 L 542,403 L 543,402 L 543,396 L 544,395 L 544,394 L 545,393 Z" fill="white" stroke="black" stroke-width="1" /><path d="M 559,354 L 559,355 L 558,356 L 558,357 L 557,358 L 557,359 L 556,360 L 556,361 L 555,362 L 555,363 L 554,364 L 554,365 L 553,366 L 553,368 L 552,369 L 552,370 L 551,371 L 551,373 L 550,374 L 550,375 L 549,376 L 549,377 L 548,378 L 548,381 L 547,382 L 547,385 L 548,385 L 548,380 L 550,378 L 550,374 L 552,372 L 552,371 L 553,370 L 553,368 L 554,367 L 554,366 L 555,365 L 555,363 L 557,361 L 557,358 L 559,356 Z" fill="white" stroke="black" stroke-width="1" /><path d="M 561,351 L 560,352 Z" fill="white" stroke="black" stroke-width="1" /><path d="M 607,340 L 606,341 L 605,341 L 603,343 L 600,343 L 598,345 L 597,345 L 594,348 L 593,348 L 592,349 L 592,350 L 587,355 L 587,356 L 585,358 L 585,359 L 582,362 L 582,364 L 580,366 L 580,368 L 578,370 L 578,371 L 577,372 L 577,375 L 575,377 L 575,380 L 573,382 L 573,386 L 571,388 L 571,390 L 570,391 L 570,394 L 569,395 L 569,396 L 568,397 L 568,403 L 567,404 L 567,405 L 566,406 L 566,412 L 565,413 L 565,414 L 564,415 L 564,417 L 563,418 L 563,423 L 562,424 L 562,427 L 561,428 L 561,439 L 559,441 L 559,455 L 557,457 L 557,463 L 556,464 L 556,479 L 555,480 L 555,488 L 554,489 L 554,513 L 559,513 L 561,511 L 563,511 L 564,510 L 566,510 L 567,509 L 569,509 L 570,508 L 572,508 L 574,506 L 577,506 L 578,505 L 579,505 L 580,504 L 582,504 L 583,503 L 585,503 L 587,501 L 590,501 L 592,499 L 596,499 L 598,497 L 600,497 L 601,496 L 602,496 L 603,495 L 604,495 L 605,494 L 609,494 L 611,492 L 615,492 L 615,491 L 616,490 L 617,490 L 618,489 L 621,489 L 622,488 L 623,488 L 624,487 L 627,487 L 628,486 L 626,486 L 625,487 L 624,487 L 623,488 L 621,488 L 620,489 L 618,489 L 617,490 L 616,490 L 615,491 L 613,491 L 612,492 L 609,492 L 608,493 L 605,493 L 604,492 L 605,491 L 606,491 L 605,491 L 604,490 L 605,489 L 607,489 L 606,489 L 605,488 L 606,487 L 606,481 L 607,480 L 607,472 L 608,471 L 608,467 L 609,466 L 609,461 L 610,460 L 610,456 L 611,455 L 611,451 L 612,450 L 612,446 L 613,445 L 613,440 L 614,439 L 614,438 L 615,437 L 615,434 L 616,433 L 616,431 L 617,430 L 617,427 L 618,426 L 618,423 L 620,421 L 620,418 L 621,417 L 621,415 L 622,414 L 622,413 L 623,412 L 623,411 L 624,410 L 624,408 L 626,406 L 626,405 L 627,404 L 627,403 L 631,399 L 631,398 L 632,397 L 633,397 L 637,393 L 639,393 L 640,392 L 649,392 L 650,393 L 652,393 L 654,395 L 655,395 L 656,396 L 657,396 L 659,398 L 659,403 L 660,404 L 660,407 L 661,408 L 661,413 L 662,414 L 662,421 L 663,422 L 663,428 L 664,429 L 664,443 L 665,444 L 665,457 L 666,458 L 666,470 L 664,472 L 663,472 L 662,473 L 661,473 L 664,473 L 666,471 L 666,468 L 667,467 L 666,466 L 666,438 L 664,436 L 664,418 L 663,417 L 663,416 L 662,415 L 662,404 L 661,403 L 661,402 L 659,400 L 660,399 L 660,398 L 659,397 L 659,392 L 658,391 L 658,390 L 657,389 L 657,384 L 656,383 L 656,382 L 655,381 L 655,378 L 654,377 L 654,376 L 653,375 L 653,374 L 652,373 L 652,371 L 650,369 L 650,367 L 649,366 L 649,365 L 648,364 L 648,363 L 647,362 L 647,361 L 644,358 L 644,357 L 643,356 L 643,355 L 635,347 L 634,347 L 632,345 L 630,345 L 628,343 L 626,343 L 625,342 L 624,342 L 623,341 L 619,341 L 618,340 L 616,340 L 615,341 L 608,341 Z" fill="white" stroke="black" stroke-width="1" /><path d="M 738,331 L 737,332 L 728,332 L 727,333 L 727,335 L 728,336 L 728,337 L 729,338 L 729,340 L 730,341 L 730,342 L 731,343 L 731,344 L 731,340 L 730,340 L 729,339 L 729,336 L 728,335 L 728,334 L 730,332 L 741,332 L 742,331 L 743,331 Z" fill="white" stroke="black" stroke-width="1" /><path d="M 635,319 L 636,320 L 637,320 L 638,321 L 639,321 L 640,322 L 641,322 L 642,323 L 644,323 L 645,324 L 645,325 L 646,325 L 648,327 L 649,327 L 659,337 L 659,338 L 663,342 L 663,343 L 666,346 L 666,348 L 667,348 L 668,349 L 668,351 L 669,352 L 669,353 L 670,354 L 670,356 L 672,358 L 672,359 L 673,360 L 673,362 L 674,363 L 674,364 L 675,365 L 675,368 L 677,370 L 677,374 L 678,375 L 678,376 L 679,377 L 679,379 L 680,380 L 680,383 L 681,384 L 681,388 L 682,389 L 682,394 L 683,395 L 683,396 L 684,397 L 684,405 L 685,406 L 685,407 L 686,408 L 686,421 L 687,422 L 687,426 L 688,427 L 688,431 L 689,432 L 689,452 L 691,454 L 691,486 L 692,487 L 692,489 L 691,490 L 691,497 L 692,498 L 692,500 L 693,501 L 693,543 L 694,544 L 694,545 L 693,546 L 694,547 L 694,555 L 695,556 L 695,559 L 696,560 L 696,579 L 698,581 L 698,592 L 700,594 L 700,601 L 701,602 L 701,604 L 702,605 L 702,607 L 703,608 L 703,613 L 702,614 L 672,614 L 679,614 L 680,615 L 681,615 L 682,616 L 682,632 L 683,633 L 683,638 L 684,639 L 684,641 L 685,642 L 685,643 L 686,644 L 686,645 L 687,646 L 687,647 L 688,648 L 689,648 L 691,650 L 691,651 L 693,653 L 695,653 L 696,654 L 696,655 L 697,655 L 698,656 L 699,656 L 700,657 L 703,657 L 704,658 L 708,658 L 709,659 L 722,659 L 723,658 L 726,658 L 727,657 L 729,657 L 730,656 L 731,656 L 732,655 L 735,655 L 735,654 L 736,653 L 738,653 L 739,652 L 740,652 L 741,651 L 745,651 L 746,650 L 747,650 L 748,651 L 751,651 L 752,652 L 754,652 L 755,653 L 756,653 L 757,654 L 758,654 L 759,655 L 762,655 L 764,657 L 765,657 L 766,658 L 770,658 L 771,659 L 778,659 L 779,658 L 786,658 L 787,657 L 789,657 L 790,656 L 791,656 L 792,655 L 793,655 L 795,653 L 796,653 L 798,651 L 798,650 L 799,649 L 800,649 L 800,648 L 802,646 L 802,645 L 803,644 L 803,643 L 804,642 L 804,641 L 805,640 L 805,636 L 806,635 L 806,630 L 807,629 L 807,612 L 806,611 L 806,608 L 807,607 L 806,606 L 806,601 L 805,600 L 806,599 L 806,584 L 807,583 L 807,578 L 806,577 L 806,576 L 807,575 L 807,570 L 808,569 L 808,568 L 809,567 L 809,564 L 810,563 L 810,562 L 811,561 L 811,560 L 812,559 L 812,558 L 813,557 L 813,556 L 815,554 L 815,552 L 816,551 L 817,551 L 817,549 L 821,545 L 821,543 L 826,538 L 826,537 L 830,533 L 831,533 L 833,531 L 834,532 L 834,533 L 834,532 L 835,531 L 836,532 L 836,533 L 837,534 L 837,535 L 838,536 L 838,539 L 839,540 L 839,541 L 840,542 L 840,545 L 841,546 L 841,549 L 842,550 L 842,551 L 843,552 L 843,555 L 844,556 L 844,558 L 845,559 L 845,561 L 846,562 L 846,565 L 847,566 L 847,568 L 848,569 L 848,572 L 849,573 L 849,575 L 850,576 L 850,579 L 851,580 L 851,583 L 852,584 L 852,586 L 853,587 L 853,589 L 854,590 L 854,593 L 855,594 L 855,596 L 856,597 L 856,599 L 857,600 L 857,603 L 858,604 L 858,606 L 859,607 L 859,609 L 860,610 L 860,612 L 861,613 L 861,615 L 862,616 L 862,619 L 863,620 L 863,622 L 864,623 L 864,627 L 865,628 L 865,630 L 866,631 L 866,633 L 867,634 L 867,637 L 868,638 L 868,640 L 869,641 L 869,644 L 870,645 L 870,646 L 871,647 L 871,651 L 872,652 L 872,654 L 873,655 L 873,658 L 874,659 L 874,660 L 875,661 L 875,664 L 876,665 L 876,668 L 877,669 L 877,672 L 878,673 L 878,677 L 879,678 L 879,680 L 880,681 L 880,688 L 881,689 L 881,693 L 882,694 L 882,710 L 881,711 L 881,713 L 880,714 L 880,716 L 879,717 L 879,719 L 878,720 L 879,721 L 882,721 L 884,723 L 887,723 L 888,724 L 889,724 L 890,725 L 892,725 L 893,726 L 893,727 L 894,727 L 895,728 L 895,735 L 896,736 L 896,742 L 897,743 L 897,746 L 898,747 L 898,748 L 899,749 L 899,751 L 900,752 L 900,753 L 901,754 L 901,755 L 902,756 L 902,757 L 903,758 L 903,759 L 907,763 L 907,764 L 908,764 L 909,765 L 910,765 L 913,768 L 914,768 L 916,770 L 917,770 L 918,771 L 919,771 L 920,772 L 920,773 L 921,773 L 922,774 L 924,774 L 925,775 L 925,776 L 927,776 L 928,777 L 929,777 L 930,778 L 931,778 L 934,781 L 935,781 L 936,782 L 937,782 L 938,783 L 939,783 L 941,785 L 943,785 L 944,786 L 945,786 L 946,787 L 947,787 L 949,789 L 951,789 L 952,790 L 957,790 L 958,791 L 967,791 L 968,790 L 969,790 L 973,786 L 974,786 L 975,785 L 975,782 L 976,781 L 977,781 L 978,780 L 978,769 L 977,768 L 977,761 L 976,760 L 976,759 L 975,758 L 975,755 L 974,754 L 974,753 L 973,752 L 973,750 L 972,749 L 972,748 L 971,747 L 971,746 L 970,745 L 970,744 L 969,743 L 969,740 L 967,738 L 967,736 L 966,735 L 966,734 L 965,733 L 965,731 L 964,730 L 964,729 L 963,728 L 963,726 L 962,725 L 962,724 L 961,723 L 961,721 L 960,720 L 960,719 L 959,718 L 959,717 L 958,716 L 958,714 L 957,713 L 957,711 L 956,710 L 956,708 L 955,707 L 955,706 L 954,705 L 954,702 L 953,701 L 953,699 L 952,698 L 952,697 L 951,696 L 951,693 L 950,692 L 950,691 L 949,690 L 949,688 L 948,687 L 948,685 L 947,684 L 947,682 L 946,681 L 946,679 L 945,678 L 945,675 L 944,674 L 944,672 L 943,671 L 943,668 L 942,667 L 942,666 L 941,665 L 941,664 L 940,663 L 940,660 L 939,659 L 939,656 L 938,655 L 938,653 L 937,652 L 937,649 L 936,648 L 936,647 L 935,646 L 935,643 L 934,642 L 934,640 L 933,639 L 933,637 L 932,636 L 932,633 L 931,632 L 931,630 L 930,629 L 930,628 L 929,627 L 929,624 L 928,623 L 928,621 L 927,620 L 927,618 L 926,617 L 926,615 L 925,614 L 925,612 L 924,611 L 924,608 L 923,607 L 923,605 L 922,604 L 922,602 L 921,601 L 921,598 L 920,597 L 920,596 L 919,595 L 919,592 L 918,591 L 918,589 L 917,588 L 917,587 L 916,586 L 916,583 L 915,582 L 915,580 L 914,579 L 914,577 L 913,576 L 913,573 L 912,572 L 912,571 L 911,570 L 911,568 L 910,567 L 910,565 L 909,564 L 909,562 L 908,561 L 908,557 L 907,556 L 907,555 L 906,554 L 906,552 L 905,551 L 905,548 L 904,547 L 904,546 L 903,545 L 903,542 L 902,541 L 902,540 L 901,539 L 901,536 L 900,535 L 900,532 L 899,531 L 899,529 L 898,528 L 898,526 L 897,525 L 897,523 L 896,522 L 896,520 L 895,519 L 895,516 L 894,515 L 894,514 L 893,513 L 893,510 L 892,509 L 892,507 L 891,506 L 891,504 L 890,503 L 890,501 L 889,500 L 889,497 L 888,496 L 888,495 L 887,494 L 887,491 L 886,490 L 886,488 L 885,487 L 885,484 L 884,483 L 884,480 L 883,479 L 883,476 L 882,475 L 882,464 L 883,463 L 883,459 L 884,458 L 884,457 L 885,456 L 885,455 L 886,454 L 886,453 L 887,452 L 887,451 L 889,449 L 889,448 L 891,446 L 891,445 L 893,443 L 893,442 L 894,441 L 895,441 L 895,440 L 896,439 L 896,438 L 898,436 L 898,435 L 900,433 L 900,432 L 901,431 L 901,430 L 905,426 L 905,425 L 907,423 L 907,422 L 908,421 L 908,420 L 911,417 L 911,416 L 913,414 L 913,413 L 916,410 L 916,409 L 917,408 L 917,407 L 922,402 L 922,400 L 925,397 L 925,396 L 928,393 L 928,392 L 932,388 L 932,387 L 938,381 L 938,380 L 939,379 L 939,378 L 941,376 L 941,375 L 943,373 L 943,370 L 945,368 L 945,365 L 946,364 L 946,360 L 947,359 L 947,358 L 946,357 L 946,352 L 945,351 L 945,350 L 943,348 L 943,346 L 937,340 L 936,340 L 935,339 L 933,339 L 932,338 L 930,338 L 929,337 L 927,337 L 926,336 L 914,336 L 913,335 L 911,335 L 910,334 L 909,334 L 909,335 L 908,336 L 907,335 L 906,335 L 905,336 L 904,335 L 903,336 L 902,336 L 901,335 L 906,330 L 907,330 L 910,327 L 911,327 L 913,325 L 914,325 L 915,324 L 916,324 L 917,323 L 916,322 L 898,322 L 897,321 L 866,321 L 865,322 L 856,322 L 855,321 L 854,322 L 852,322 L 851,321 L 850,321 L 849,322 L 849,324 L 856,331 L 856,332 L 857,333 L 857,335 L 858,336 L 858,341 L 857,342 L 857,345 L 855,347 L 855,348 L 853,350 L 853,351 L 852,352 L 852,353 L 850,355 L 850,356 L 848,358 L 848,359 L 846,361 L 846,362 L 844,364 L 844,365 L 841,368 L 841,369 L 840,370 L 840,371 L 837,374 L 837,375 L 836,376 L 838,376 L 838,375 L 840,373 L 840,370 L 841,369 L 843,369 L 843,367 L 845,365 L 845,363 L 846,362 L 847,362 L 847,360 L 848,359 L 849,359 L 850,358 L 850,357 L 851,356 L 851,355 L 854,352 L 854,351 L 856,349 L 856,348 L 857,347 L 857,345 L 859,343 L 859,334 L 856,331 L 856,329 L 855,329 L 854,328 L 854,327 L 853,327 L 852,326 L 852,325 L 851,324 L 852,323 L 912,323 L 913,324 L 912,325 L 911,325 L 909,327 L 908,327 L 906,329 L 905,329 L 905,330 L 904,331 L 903,331 L 899,335 L 898,335 L 897,336 L 897,337 L 895,339 L 894,339 L 891,342 L 891,343 L 888,346 L 888,347 L 885,350 L 885,351 L 884,352 L 884,353 L 881,356 L 881,357 L 880,358 L 880,359 L 878,361 L 877,361 L 877,363 L 875,365 L 875,366 L 872,369 L 872,370 L 870,372 L 870,373 L 867,376 L 867,377 L 865,379 L 865,380 L 863,382 L 863,384 L 862,385 L 861,385 L 861,386 L 858,389 L 858,391 L 857,392 L 856,392 L 856,393 L 853,396 L 853,397 L 851,399 L 851,400 L 849,402 L 849,403 L 847,405 L 847,407 L 846,408 L 845,408 L 845,409 L 842,412 L 842,413 L 840,415 L 840,416 L 837,419 L 837,420 L 835,422 L 835,423 L 833,425 L 833,426 L 830,429 L 830,436 L 831,437 L 831,439 L 832,440 L 832,442 L 833,443 L 833,445 L 835,447 L 835,452 L 836,453 L 836,454 L 837,455 L 837,459 L 839,461 L 839,463 L 840,464 L 840,467 L 841,468 L 841,469 L 842,470 L 842,474 L 843,475 L 843,476 L 844,477 L 844,481 L 845,482 L 845,483 L 846,484 L 846,486 L 847,487 L 847,490 L 849,492 L 849,496 L 850,497 L 850,498 L 851,499 L 851,503 L 852,504 L 852,505 L 853,506 L 853,509 L 854,510 L 854,512 L 856,514 L 856,518 L 857,519 L 857,520 L 858,521 L 858,525 L 859,526 L 859,527 L 860,528 L 860,531 L 861,532 L 861,533 L 862,534 L 862,537 L 863,538 L 863,541 L 865,543 L 865,547 L 866,548 L 866,549 L 867,550 L 867,553 L 868,554 L 868,556 L 869,557 L 869,559 L 870,560 L 870,563 L 872,565 L 872,570 L 874,572 L 874,575 L 875,576 L 875,578 L 876,579 L 876,580 L 877,581 L 877,585 L 878,586 L 878,587 L 879,588 L 879,591 L 880,592 L 880,593 L 881,594 L 881,598 L 882,599 L 882,600 L 883,601 L 883,602 L 884,603 L 884,607 L 885,608 L 885,609 L 886,610 L 886,614 L 888,616 L 888,620 L 889,621 L 889,622 L 890,623 L 890,626 L 891,627 L 891,629 L 892,630 L 892,631 L 893,632 L 893,636 L 894,637 L 894,638 L 895,639 L 895,643 L 896,644 L 896,645 L 897,646 L 897,648 L 898,649 L 898,652 L 899,653 L 899,654 L 900,655 L 900,658 L 901,659 L 901,660 L 902,661 L 902,665 L 903,666 L 903,667 L 904,668 L 904,672 L 905,673 L 905,674 L 906,675 L 906,676 L 907,677 L 907,680 L 908,681 L 908,682 L 909,683 L 909,686 L 910,687 L 910,688 L 911,689 L 911,690 L 912,691 L 912,693 L 914,695 L 914,699 L 916,701 L 916,703 L 917,704 L 917,705 L 918,706 L 918,707 L 919,708 L 919,710 L 921,712 L 921,714 L 922,715 L 922,716 L 923,717 L 923,719 L 924,720 L 924,721 L 925,722 L 925,723 L 926,724 L 926,725 L 928,727 L 928,730 L 930,732 L 930,735 L 931,735 L 932,736 L 932,738 L 933,739 L 933,741 L 935,743 L 935,745 L 936,746 L 936,747 L 937,748 L 937,750 L 939,752 L 939,755 L 938,756 L 935,753 L 934,753 L 933,752 L 933,751 L 931,749 L 930,749 L 928,747 L 928,746 L 927,746 L 925,744 L 924,744 L 923,743 L 923,742 L 922,742 L 921,741 L 920,741 L 919,740 L 919,739 L 918,739 L 916,737 L 915,737 L 913,735 L 912,735 L 910,733 L 909,733 L 908,732 L 907,732 L 905,730 L 904,730 L 902,728 L 900,728 L 897,725 L 892,725 L 891,724 L 891,723 L 887,723 L 885,721 L 883,721 L 882,720 L 881,720 L 880,719 L 880,717 L 882,715 L 882,685 L 881,684 L 881,683 L 880,682 L 880,674 L 877,671 L 877,668 L 878,667 L 878,666 L 877,665 L 877,664 L 876,663 L 876,662 L 875,661 L 875,660 L 876,659 L 875,658 L 875,656 L 874,656 L 873,655 L 873,649 L 871,647 L 871,643 L 870,642 L 870,640 L 869,640 L 868,639 L 868,633 L 866,631 L 866,626 L 865,625 L 865,624 L 864,623 L 864,619 L 863,618 L 863,617 L 861,615 L 861,614 L 862,613 L 861,612 L 861,609 L 859,607 L 859,601 L 857,599 L 857,595 L 856,594 L 856,593 L 855,592 L 855,589 L 854,588 L 854,585 L 852,583 L 852,579 L 851,578 L 851,577 L 850,576 L 850,571 L 849,570 L 849,569 L 847,567 L 847,562 L 845,560 L 845,554 L 843,552 L 843,547 L 841,545 L 841,544 L 840,543 L 841,542 L 841,541 L 840,540 L 840,538 L 838,536 L 838,531 L 836,529 L 836,524 L 835,523 L 835,522 L 834,521 L 834,517 L 833,516 L 833,515 L 832,514 L 832,513 L 831,512 L 831,507 L 830,506 L 830,505 L 829,504 L 829,500 L 828,499 L 828,498 L 827,497 L 827,494 L 826,493 L 826,491 L 825,490 L 825,488 L 824,487 L 824,483 L 823,482 L 823,481 L 822,480 L 822,476 L 820,474 L 820,470 L 819,469 L 819,467 L 818,466 L 818,465 L 817,464 L 817,460 L 815,458 L 815,455 L 814,455 L 813,454 L 810,457 L 810,458 L 809,459 L 809,460 L 807,462 L 807,463 L 806,464 L 805,464 L 805,465 L 803,467 L 803,468 L 800,471 L 800,472 L 798,474 L 798,475 L 796,477 L 796,478 L 793,481 L 793,482 L 791,484 L 791,485 L 788,488 L 788,489 L 786,491 L 786,492 L 784,494 L 784,495 L 783,496 L 782,496 L 782,497 L 781,498 L 781,499 L 780,500 L 779,500 L 779,502 L 777,504 L 777,505 L 774,508 L 774,509 L 770,513 L 770,515 L 769,516 L 768,516 L 768,517 L 766,519 L 766,520 L 765,521 L 765,522 L 761,526 L 761,527 L 759,529 L 759,530 L 758,531 L 758,592 L 759,593 L 759,596 L 760,597 L 760,601 L 761,602 L 761,605 L 763,607 L 763,610 L 765,612 L 765,613 L 764,614 L 729,614 L 728,613 L 728,612 L 729,611 L 729,610 L 730,609 L 730,607 L 731,606 L 731,603 L 732,602 L 732,600 L 733,599 L 733,596 L 734,595 L 734,350 L 733,349 L 733,348 L 732,347 L 732,353 L 733,354 L 733,405 L 732,406 L 732,422 L 731,423 L 730,423 L 729,422 L 729,416 L 728,415 L 728,412 L 727,411 L 727,408 L 726,407 L 726,405 L 725,404 L 725,401 L 724,400 L 724,399 L 723,398 L 723,396 L 722,395 L 722,393 L 721,392 L 721,390 L 720,389 L 720,388 L 719,387 L 719,386 L 718,385 L 718,383 L 717,382 L 717,381 L 716,380 L 716,379 L 714,377 L 714,376 L 713,375 L 713,373 L 712,372 L 712,371 L 709,368 L 709,367 L 707,365 L 707,364 L 705,362 L 705,361 L 703,359 L 703,358 L 702,358 L 701,357 L 701,356 L 697,352 L 696,352 L 695,351 L 695,350 L 694,349 L 693,349 L 692,348 L 692,347 L 689,344 L 688,344 L 686,342 L 685,342 L 684,341 L 683,341 L 681,339 L 680,339 L 679,338 L 677,338 L 675,336 L 673,336 L 671,334 L 668,334 L 667,333 L 664,333 L 663,332 L 661,332 L 660,331 L 659,331 L 658,332 L 657,332 L 656,331 L 656,330 L 655,330 L 654,329 L 653,329 L 649,325 L 648,325 L 646,323 L 645,323 L 644,322 L 642,322 L 640,320 L 639,320 L 638,319 Z" fill="white" stroke="black" stroke-width="1" /><path d="M 298,319 L 299,320 L 300,320 L 301,321 L 303,321 L 304,322 L 305,322 L 306,323 L 309,323 L 310,324 L 310,325 L 313,325 L 314,326 L 314,327 L 316,327 L 317,328 L 319,328 L 320,329 L 320,330 L 321,330 L 323,332 L 324,332 L 325,333 L 326,333 L 328,335 L 329,335 L 331,337 L 333,337 L 334,338 L 334,339 L 336,339 L 338,341 L 339,341 L 340,342 L 341,342 L 342,343 L 343,343 L 344,344 L 346,344 L 348,346 L 350,346 L 351,347 L 351,348 L 349,350 L 348,350 L 348,351 L 347,352 L 346,352 L 343,355 L 343,356 L 342,357 L 341,357 L 335,363 L 335,364 L 334,365 L 334,366 L 332,368 L 331,368 L 331,370 L 329,372 L 329,374 L 327,376 L 325,376 L 324,375 L 324,374 L 323,373 L 323,371 L 322,371 L 321,370 L 321,367 L 320,366 L 319,366 L 318,365 L 318,363 L 316,361 L 316,360 L 315,360 L 314,359 L 314,358 L 306,350 L 305,350 L 303,348 L 302,348 L 300,346 L 299,346 L 298,345 L 295,345 L 293,343 L 288,343 L 286,341 L 281,341 L 280,340 L 279,341 L 278,340 L 268,340 L 267,341 L 261,341 L 259,343 L 253,343 L 251,345 L 250,345 L 249,346 L 248,346 L 247,347 L 246,347 L 245,348 L 244,348 L 244,349 L 243,350 L 242,350 L 239,353 L 239,354 L 238,355 L 237,355 L 236,356 L 236,358 L 235,359 L 234,359 L 234,360 L 232,362 L 232,365 L 229,368 L 229,372 L 227,374 L 227,383 L 226,384 L 226,385 L 225,386 L 225,403 L 227,405 L 227,412 L 229,414 L 229,417 L 230,418 L 230,419 L 232,421 L 232,422 L 234,424 L 234,425 L 237,428 L 237,429 L 238,429 L 240,431 L 240,432 L 241,432 L 248,439 L 249,439 L 251,441 L 252,441 L 254,443 L 255,443 L 258,446 L 260,446 L 262,448 L 264,448 L 265,449 L 265,450 L 267,450 L 268,451 L 269,451 L 271,453 L 273,453 L 275,455 L 277,455 L 278,456 L 278,457 L 281,457 L 283,459 L 285,459 L 286,460 L 287,460 L 289,462 L 291,462 L 293,464 L 295,464 L 297,466 L 299,466 L 300,467 L 301,467 L 303,469 L 305,469 L 307,471 L 310,471 L 311,472 L 311,473 L 313,473 L 314,474 L 315,474 L 316,475 L 317,475 L 318,476 L 319,476 L 321,478 L 322,478 L 324,480 L 325,480 L 328,483 L 330,483 L 334,487 L 335,487 L 337,489 L 338,489 L 341,492 L 342,492 L 343,493 L 343,494 L 344,494 L 348,498 L 348,499 L 349,499 L 350,500 L 350,501 L 351,501 L 353,503 L 353,504 L 357,508 L 357,509 L 359,511 L 359,513 L 360,513 L 362,515 L 362,517 L 363,517 L 364,518 L 364,521 L 366,523 L 366,525 L 368,527 L 368,531 L 369,532 L 369,533 L 370,534 L 370,535 L 371,536 L 371,541 L 372,542 L 372,543 L 373,544 L 373,581 L 371,583 L 371,591 L 369,593 L 369,595 L 368,596 L 368,599 L 367,600 L 367,601 L 366,602 L 366,604 L 364,606 L 364,609 L 362,611 L 362,613 L 359,616 L 359,618 L 357,620 L 357,622 L 354,625 L 354,626 L 353,627 L 353,628 L 350,631 L 350,632 L 346,636 L 346,637 L 345,638 L 345,639 L 344,640 L 343,640 L 343,641 L 342,642 L 341,642 L 341,643 L 336,648 L 336,649 L 335,650 L 334,650 L 334,651 L 329,656 L 328,656 L 325,659 L 325,660 L 324,661 L 323,661 L 323,662 L 322,663 L 321,663 L 319,665 L 318,665 L 315,668 L 315,669 L 314,670 L 313,670 L 311,672 L 310,672 L 308,674 L 307,674 L 304,677 L 303,677 L 301,679 L 300,679 L 298,681 L 297,681 L 297,682 L 296,683 L 295,683 L 294,684 L 293,684 L 291,686 L 290,686 L 290,687 L 289,688 L 288,688 L 287,689 L 286,689 L 284,691 L 283,691 L 281,693 L 279,693 L 277,695 L 276,695 L 273,698 L 271,698 L 269,700 L 268,700 L 266,702 L 265,702 L 263,704 L 260,704 L 257,707 L 255,707 L 255,708 L 254,709 L 251,709 L 251,710 L 249,712 L 246,712 L 246,713 L 245,714 L 243,714 L 241,716 L 239,716 L 237,718 L 235,718 L 233,720 L 231,720 L 230,721 L 229,721 L 227,723 L 225,723 L 224,724 L 223,724 L 222,725 L 220,725 L 218,727 L 217,727 L 216,728 L 215,728 L 213,730 L 210,730 L 208,732 L 205,732 L 204,733 L 203,733 L 201,735 L 198,735 L 196,737 L 194,737 L 192,739 L 189,739 L 188,740 L 187,740 L 186,741 L 184,741 L 183,742 L 182,742 L 180,744 L 177,744 L 175,746 L 172,746 L 170,748 L 168,748 L 167,749 L 166,749 L 164,751 L 161,751 L 159,753 L 156,753 L 156,754 L 155,755 L 153,753 L 153,750 L 151,748 L 151,743 L 149,741 L 149,738 L 147,736 L 147,735 L 144,732 L 144,730 L 143,730 L 142,729 L 142,728 L 141,728 L 140,727 L 140,726 L 139,726 L 138,725 L 138,724 L 139,723 L 140,724 L 142,724 L 143,723 L 144,723 L 145,722 L 151,722 L 152,721 L 154,721 L 156,719 L 162,719 L 163,718 L 164,718 L 165,717 L 170,717 L 173,714 L 178,714 L 178,713 L 176,713 L 175,714 L 173,714 L 172,715 L 169,715 L 168,716 L 166,716 L 165,717 L 164,717 L 163,718 L 160,718 L 159,719 L 155,719 L 154,720 L 149,720 L 148,721 L 145,721 L 144,722 L 139,722 L 138,723 L 137,723 L 136,724 L 135,724 L 135,726 L 136,726 L 138,728 L 139,728 L 145,734 L 145,735 L 146,736 L 146,737 L 148,739 L 148,740 L 149,741 L 149,743 L 150,744 L 150,746 L 151,747 L 151,754 L 153,756 L 154,756 L 155,755 L 157,755 L 158,754 L 161,754 L 162,755 L 161,756 L 161,758 L 160,759 L 159,759 L 160,760 L 160,767 L 161,768 L 161,770 L 162,771 L 162,774 L 163,775 L 163,777 L 165,779 L 165,780 L 166,781 L 166,782 L 169,785 L 170,785 L 172,787 L 172,788 L 174,790 L 175,790 L 177,792 L 179,792 L 180,793 L 182,793 L 183,794 L 188,794 L 189,795 L 199,795 L 200,794 L 203,794 L 204,793 L 209,793 L 210,792 L 211,792 L 212,791 L 213,791 L 214,790 L 216,790 L 217,789 L 219,789 L 221,787 L 223,787 L 224,786 L 225,786 L 226,785 L 228,785 L 230,783 L 233,783 L 235,781 L 236,781 L 237,780 L 239,780 L 240,779 L 241,779 L 242,778 L 243,778 L 244,777 L 246,777 L 248,775 L 251,775 L 253,773 L 254,773 L 255,772 L 257,772 L 259,770 L 260,770 L 261,769 L 263,769 L 264,768 L 265,768 L 266,767 L 267,767 L 268,766 L 269,766 L 271,764 L 273,764 L 275,762 L 276,762 L 277,761 L 279,761 L 279,760 L 280,759 L 283,759 L 285,757 L 286,757 L 288,755 L 290,755 L 292,753 L 294,753 L 296,751 L 297,751 L 299,749 L 300,749 L 302,747 L 303,747 L 304,746 L 305,746 L 306,745 L 307,745 L 308,744 L 309,744 L 312,741 L 314,741 L 317,738 L 318,738 L 319,737 L 320,737 L 321,736 L 322,736 L 323,735 L 324,735 L 328,731 L 329,731 L 330,730 L 331,730 L 333,728 L 334,728 L 338,724 L 339,724 L 341,722 L 342,722 L 344,720 L 345,720 L 347,718 L 348,718 L 350,716 L 350,715 L 351,714 L 352,714 L 353,713 L 354,713 L 356,711 L 357,711 L 357,710 L 360,707 L 361,707 L 365,703 L 366,703 L 367,702 L 367,701 L 381,687 L 381,686 L 382,685 L 383,685 L 385,683 L 385,682 L 386,681 L 386,680 L 387,679 L 388,679 L 389,678 L 389,677 L 391,675 L 391,674 L 394,671 L 394,670 L 396,668 L 396,667 L 397,666 L 397,665 L 399,663 L 400,663 L 400,661 L 401,660 L 401,659 L 402,658 L 402,657 L 404,655 L 404,654 L 405,653 L 405,652 L 407,650 L 407,648 L 408,647 L 409,647 L 410,646 L 410,645 L 413,642 L 413,641 L 415,639 L 419,639 L 420,640 L 420,641 L 422,643 L 423,643 L 424,644 L 424,645 L 426,647 L 426,649 L 427,649 L 433,655 L 434,655 L 436,657 L 439,657 L 441,659 L 442,659 L 443,660 L 444,660 L 445,661 L 447,661 L 448,662 L 450,662 L 451,663 L 453,663 L 454,664 L 458,664 L 459,665 L 461,665 L 462,666 L 464,666 L 465,667 L 467,667 L 468,668 L 469,668 L 470,669 L 471,669 L 472,670 L 473,670 L 474,671 L 476,671 L 477,672 L 478,672 L 479,673 L 480,673 L 481,674 L 482,674 L 484,676 L 485,676 L 486,677 L 487,677 L 489,679 L 490,679 L 492,681 L 493,681 L 494,682 L 495,682 L 497,684 L 497,685 L 498,686 L 498,688 L 497,689 L 497,690 L 496,691 L 496,692 L 495,693 L 495,695 L 493,697 L 493,698 L 492,699 L 492,700 L 491,701 L 491,702 L 489,704 L 489,705 L 483,711 L 483,712 L 482,713 L 481,713 L 479,715 L 478,715 L 476,717 L 477,717 L 478,716 L 479,716 L 481,714 L 482,714 L 482,713 L 483,712 L 485,712 L 485,711 L 487,709 L 487,708 L 490,705 L 490,704 L 491,703 L 492,703 L 492,700 L 495,697 L 495,696 L 496,695 L 496,694 L 497,693 L 497,690 L 498,689 L 499,689 L 499,686 L 502,683 L 502,679 L 503,678 L 503,677 L 504,676 L 504,674 L 505,673 L 505,672 L 506,671 L 506,669 L 507,668 L 507,663 L 506,662 L 506,661 L 505,660 L 504,660 L 502,658 L 501,658 L 499,656 L 498,656 L 497,655 L 497,654 L 496,654 L 493,651 L 492,651 L 490,649 L 489,649 L 486,646 L 485,646 L 483,644 L 482,644 L 481,643 L 481,642 L 480,642 L 478,640 L 477,640 L 475,638 L 474,638 L 471,635 L 470,635 L 468,633 L 467,633 L 464,630 L 463,630 L 462,629 L 461,629 L 460,628 L 459,628 L 457,626 L 454,626 L 452,624 L 451,624 L 450,623 L 448,623 L 446,621 L 443,621 L 441,619 L 438,619 L 437,618 L 436,618 L 435,617 L 434,617 L 433,616 L 425,616 L 424,615 L 422,615 L 421,614 L 404,614 L 403,613 L 404,612 L 404,608 L 406,606 L 406,605 L 407,604 L 407,600 L 408,599 L 408,598 L 409,597 L 409,339 L 408,338 L 408,337 L 407,336 L 407,333 L 406,332 L 406,330 L 404,328 L 404,325 L 403,324 L 404,323 L 439,323 L 440,324 L 439,325 L 438,325 L 438,328 L 436,330 L 436,337 L 434,339 L 434,347 L 433,348 L 433,589 L 434,590 L 434,591 L 435,591 L 436,592 L 439,592 L 440,593 L 441,593 L 442,594 L 445,594 L 447,596 L 450,596 L 451,597 L 452,597 L 453,598 L 454,598 L 455,599 L 457,599 L 459,601 L 461,601 L 463,603 L 465,603 L 467,605 L 468,605 L 469,606 L 470,606 L 472,608 L 474,608 L 476,610 L 477,610 L 479,612 L 480,612 L 482,614 L 483,614 L 484,615 L 485,615 L 486,616 L 486,617 L 488,617 L 490,619 L 491,619 L 494,622 L 495,622 L 497,624 L 498,624 L 500,626 L 501,626 L 505,630 L 506,630 L 509,633 L 510,633 L 511,634 L 512,634 L 513,635 L 515,635 L 515,633 L 516,632 L 516,624 L 518,622 L 518,613 L 519,612 L 519,611 L 520,610 L 520,596 L 520,600 L 519,601 L 519,607 L 518,608 L 518,615 L 517,616 L 517,619 L 516,620 L 516,622 L 515,623 L 515,625 L 514,626 L 513,625 L 513,624 L 512,623 L 510,623 L 509,622 L 507,622 L 505,620 L 504,620 L 502,618 L 502,616 L 501,617 L 501,618 L 500,619 L 499,618 L 499,616 L 498,616 L 497,617 L 496,616 L 496,615 L 495,615 L 494,614 L 493,614 L 492,613 L 491,613 L 489,611 L 489,610 L 488,610 L 485,607 L 485,605 L 483,603 L 483,602 L 482,601 L 482,598 L 481,597 L 481,388 L 482,387 L 482,368 L 481,367 L 481,360 L 480,359 L 480,356 L 479,355 L 479,354 L 478,353 L 478,352 L 477,351 L 477,350 L 476,349 L 476,348 L 470,342 L 468,342 L 466,340 L 464,340 L 463,339 L 462,339 L 461,338 L 456,338 L 455,337 L 446,337 L 445,338 L 442,338 L 441,339 L 437,339 L 436,338 L 436,335 L 437,334 L 437,332 L 438,331 L 438,328 L 440,326 L 440,324 L 441,323 L 440,322 L 402,322 L 402,325 L 403,326 L 403,327 L 404,328 L 404,329 L 405,330 L 405,332 L 406,333 L 406,335 L 407,336 L 407,341 L 408,342 L 408,537 L 407,538 L 403,534 L 403,533 L 402,532 L 402,531 L 399,528 L 399,526 L 398,526 L 395,523 L 395,522 L 385,512 L 384,512 L 377,505 L 376,505 L 373,502 L 372,502 L 369,499 L 368,499 L 365,496 L 364,496 L 363,495 L 362,495 L 361,494 L 360,494 L 359,493 L 358,493 L 357,492 L 356,492 L 353,489 L 352,489 L 351,488 L 350,489 L 349,489 L 348,488 L 349,487 L 348,487 L 347,486 L 346,486 L 345,485 L 343,485 L 342,484 L 340,484 L 337,481 L 335,481 L 333,479 L 332,479 L 331,478 L 330,478 L 329,477 L 328,477 L 327,476 L 326,476 L 325,475 L 325,474 L 321,474 L 320,473 L 321,472 L 322,472 L 321,472 L 320,473 L 319,473 L 317,471 L 316,471 L 315,470 L 314,470 L 313,469 L 312,469 L 311,468 L 310,468 L 309,467 L 308,467 L 306,465 L 303,465 L 301,463 L 301,462 L 300,462 L 299,461 L 298,461 L 297,460 L 295,460 L 294,459 L 294,458 L 292,456 L 291,456 L 282,447 L 282,446 L 279,443 L 279,441 L 278,440 L 278,439 L 277,438 L 277,437 L 276,436 L 276,432 L 275,431 L 275,428 L 274,427 L 274,418 L 275,417 L 275,412 L 276,411 L 276,408 L 277,407 L 277,406 L 278,405 L 278,403 L 280,401 L 280,400 L 281,399 L 282,399 L 282,398 L 283,397 L 284,397 L 285,396 L 285,395 L 286,394 L 287,394 L 288,393 L 290,393 L 292,391 L 296,391 L 297,390 L 299,390 L 300,389 L 302,389 L 303,390 L 304,390 L 305,389 L 307,389 L 308,390 L 310,390 L 311,391 L 315,391 L 316,392 L 318,392 L 319,393 L 320,393 L 321,394 L 322,394 L 325,397 L 326,397 L 330,401 L 331,401 L 336,406 L 336,407 L 338,407 L 340,409 L 341,409 L 342,410 L 344,410 L 345,411 L 346,411 L 348,413 L 355,413 L 356,414 L 357,414 L 358,413 L 364,413 L 365,412 L 366,412 L 367,411 L 368,411 L 369,410 L 371,410 L 372,409 L 373,409 L 374,408 L 375,408 L 376,407 L 377,407 L 377,406 L 382,401 L 382,400 L 383,399 L 384,399 L 384,397 L 385,396 L 385,395 L 386,394 L 386,392 L 387,391 L 387,389 L 388,388 L 388,385 L 389,384 L 389,378 L 388,377 L 388,372 L 387,371 L 387,370 L 386,369 L 386,367 L 385,366 L 385,365 L 381,361 L 381,360 L 380,360 L 379,359 L 379,358 L 378,357 L 377,357 L 373,353 L 371,353 L 370,352 L 370,351 L 368,351 L 367,350 L 366,350 L 365,349 L 364,349 L 362,347 L 361,347 L 360,346 L 358,346 L 357,345 L 358,344 L 357,344 L 356,345 L 355,344 L 355,343 L 354,343 L 353,342 L 352,342 L 351,341 L 351,340 L 346,340 L 345,339 L 342,339 L 341,338 L 342,337 L 343,337 L 337,337 L 336,336 L 337,335 L 336,335 L 335,334 L 331,334 L 330,333 L 327,333 L 326,332 L 327,331 L 325,331 L 324,330 L 323,330 L 322,329 L 321,329 L 320,328 L 319,328 L 318,327 L 316,327 L 314,325 L 313,325 L 312,324 L 311,324 L 310,323 L 309,323 L 308,322 L 306,322 L 305,321 L 303,321 L 302,320 L 301,320 L 300,319 Z" fill="white" stroke="black" stroke-width="1" /><path d="M 762,318 L 759,321 L 759,322 L 756,325 L 755,325 L 752,328 L 750,328 L 749,329 L 748,329 L 747,330 L 746,330 L 748,330 L 749,329 L 751,329 L 753,327 L 755,327 L 759,323 L 760,323 L 761,324 L 760,325 L 760,326 L 761,327 L 761,330 L 760,331 L 760,332 L 759,333 L 759,335 L 758,336 L 758,339 L 759,340 L 759,343 L 758,344 L 758,487 L 759,487 L 760,488 L 761,487 L 762,487 L 762,486 L 763,485 L 764,485 L 764,484 L 766,482 L 766,481 L 768,479 L 768,478 L 769,477 L 769,476 L 771,474 L 771,473 L 773,471 L 773,470 L 774,469 L 775,469 L 775,468 L 776,467 L 776,466 L 778,464 L 778,463 L 780,461 L 780,460 L 783,457 L 783,456 L 785,454 L 785,453 L 787,451 L 787,449 L 788,448 L 789,448 L 789,447 L 791,445 L 791,444 L 792,443 L 792,442 L 793,441 L 794,441 L 794,440 L 795,439 L 795,438 L 797,436 L 797,435 L 799,433 L 799,432 L 800,431 L 801,431 L 801,429 L 804,426 L 803,425 L 804,424 L 805,424 L 805,423 L 806,422 L 806,421 L 807,420 L 808,420 L 808,419 L 810,417 L 810,416 L 811,415 L 811,414 L 812,413 L 813,413 L 813,412 L 814,411 L 814,410 L 815,409 L 815,408 L 817,406 L 817,405 L 820,402 L 820,401 L 822,399 L 822,398 L 825,395 L 825,394 L 826,393 L 826,391 L 827,390 L 828,390 L 829,389 L 829,388 L 831,386 L 831,384 L 832,383 L 833,383 L 834,382 L 834,381 L 835,380 L 835,378 L 833,380 L 833,381 L 832,382 L 832,383 L 830,385 L 830,386 L 827,389 L 827,390 L 825,392 L 825,393 L 822,396 L 822,397 L 820,399 L 820,400 L 817,403 L 817,404 L 816,405 L 816,406 L 813,409 L 813,410 L 812,411 L 811,410 L 811,409 L 811,410 L 812,411 L 810,413 L 810,414 L 808,416 L 808,417 L 807,418 L 806,417 L 806,408 L 807,407 L 807,384 L 806,383 L 806,382 L 807,381 L 807,376 L 806,375 L 806,369 L 805,368 L 805,364 L 804,363 L 804,360 L 803,359 L 803,358 L 802,357 L 802,356 L 801,355 L 801,354 L 799,352 L 798,352 L 797,351 L 797,350 L 794,347 L 792,347 L 791,346 L 790,346 L 789,345 L 788,345 L 787,344 L 772,344 L 771,345 L 768,345 L 767,346 L 765,346 L 765,347 L 764,348 L 763,347 L 763,346 L 763,348 L 762,349 L 761,348 L 761,326 L 762,325 L 762,323 L 763,322 L 763,318 Z" fill="white" stroke="black" stroke-width="1" /><path d="M 627,317 L 627,318 L 633,318 L 632,318 L 631,317 Z" fill="white" stroke="black" stroke-width="1" /><path d="M 607,315 L 606,316 L 600,316 L 599,317 L 597,317 L 596,318 L 594,318 L 593,319 L 592,319 L 591,320 L 590,320 L 589,321 L 588,321 L 586,323 L 585,323 L 584,324 L 583,324 L 573,334 L 573,335 L 571,337 L 570,337 L 570,338 L 568,340 L 568,341 L 565,344 L 565,345 L 563,347 L 563,348 L 564,348 L 564,346 L 567,343 L 567,342 L 569,340 L 569,339 L 575,333 L 575,332 L 577,330 L 579,330 L 584,325 L 585,325 L 585,324 L 586,323 L 588,323 L 590,321 L 591,321 L 592,320 L 593,320 L 595,318 L 600,318 L 602,316 L 624,316 L 621,316 L 620,315 Z" fill="white" stroke="black" stroke-width="1" /><path d="M 269,315 L 268,316 L 259,316 L 258,317 L 254,317 L 253,318 L 251,318 L 250,319 L 248,319 L 247,320 L 245,320 L 244,321 L 242,321 L 241,322 L 239,322 L 237,324 L 236,324 L 235,325 L 234,325 L 231,328 L 230,328 L 223,335 L 222,335 L 220,337 L 220,338 L 216,342 L 216,343 L 214,345 L 214,346 L 211,349 L 211,350 L 210,351 L 210,352 L 209,353 L 209,354 L 208,355 L 208,356 L 207,357 L 207,358 L 206,359 L 206,361 L 205,362 L 205,364 L 204,365 L 204,366 L 203,367 L 203,369 L 202,370 L 202,375 L 201,376 L 201,380 L 200,381 L 200,409 L 201,410 L 201,413 L 202,414 L 202,418 L 203,419 L 203,421 L 204,422 L 204,423 L 205,424 L 205,426 L 207,428 L 207,429 L 208,430 L 208,431 L 210,433 L 210,434 L 211,435 L 211,436 L 213,438 L 213,439 L 214,440 L 214,441 L 216,443 L 216,445 L 217,446 L 216,447 L 216,448 L 217,449 L 217,450 L 218,451 L 218,453 L 219,454 L 219,456 L 220,457 L 220,459 L 221,460 L 221,461 L 222,462 L 222,463 L 223,464 L 223,465 L 224,466 L 224,467 L 226,469 L 226,471 L 227,471 L 228,472 L 228,474 L 232,478 L 232,479 L 233,479 L 234,480 L 234,481 L 238,485 L 238,486 L 242,490 L 243,490 L 247,494 L 247,495 L 248,495 L 251,498 L 252,498 L 254,500 L 255,500 L 258,503 L 259,503 L 261,505 L 262,505 L 264,507 L 265,507 L 267,509 L 268,509 L 269,510 L 270,510 L 272,512 L 273,512 L 274,513 L 275,513 L 276,514 L 277,514 L 278,515 L 279,515 L 280,516 L 281,516 L 282,517 L 283,517 L 285,519 L 287,519 L 289,521 L 291,521 L 293,523 L 295,523 L 296,524 L 297,524 L 298,525 L 299,525 L 301,527 L 302,527 L 303,528 L 304,528 L 305,529 L 307,529 L 309,531 L 311,531 L 312,532 L 313,532 L 316,535 L 319,535 L 320,536 L 320,537 L 322,537 L 324,539 L 325,539 L 326,540 L 327,540 L 328,541 L 328,542 L 329,542 L 330,543 L 331,543 L 333,545 L 334,545 L 338,549 L 339,549 L 341,551 L 341,552 L 342,553 L 343,553 L 344,554 L 345,554 L 346,555 L 346,557 L 347,557 L 348,558 L 348,573 L 347,574 L 347,580 L 348,580 L 348,564 L 349,563 L 349,559 L 348,558 L 348,546 L 346,544 L 346,538 L 344,536 L 344,534 L 343,533 L 343,532 L 342,531 L 342,530 L 341,529 L 341,528 L 339,526 L 339,525 L 337,523 L 337,522 L 330,515 L 330,514 L 329,513 L 328,513 L 327,512 L 327,511 L 323,507 L 322,507 L 320,505 L 319,505 L 317,503 L 316,503 L 315,502 L 315,501 L 314,501 L 313,500 L 312,500 L 311,499 L 311,498 L 310,498 L 308,496 L 306,496 L 304,494 L 303,494 L 302,493 L 301,493 L 299,491 L 298,491 L 297,490 L 296,490 L 295,489 L 294,489 L 292,487 L 290,487 L 288,485 L 287,485 L 286,484 L 284,484 L 282,482 L 280,482 L 279,481 L 278,481 L 277,480 L 275,480 L 274,479 L 274,478 L 272,478 L 271,477 L 270,477 L 268,475 L 266,475 L 265,474 L 264,474 L 263,473 L 261,473 L 259,471 L 258,471 L 257,470 L 255,470 L 253,468 L 252,468 L 251,467 L 250,467 L 249,466 L 248,466 L 246,464 L 245,464 L 243,462 L 242,462 L 241,461 L 240,461 L 238,459 L 237,459 L 234,456 L 233,456 L 232,455 L 232,454 L 231,454 L 229,452 L 228,452 L 226,450 L 225,450 L 221,446 L 221,444 L 220,444 L 218,442 L 218,441 L 211,434 L 211,433 L 209,431 L 209,429 L 208,429 L 207,428 L 207,425 L 205,423 L 205,420 L 204,419 L 204,418 L 202,416 L 202,407 L 201,406 L 201,403 L 200,402 L 200,389 L 201,388 L 201,387 L 202,386 L 202,374 L 203,373 L 203,372 L 204,371 L 204,370 L 205,369 L 205,364 L 207,362 L 207,359 L 208,358 L 208,357 L 209,356 L 209,355 L 210,354 L 210,353 L 211,352 L 211,351 L 212,350 L 212,349 L 214,347 L 214,346 L 216,344 L 216,343 L 223,336 L 223,335 L 224,334 L 226,334 L 226,333 L 231,328 L 232,328 L 233,327 L 234,327 L 236,325 L 237,325 L 238,324 L 239,324 L 240,323 L 242,323 L 244,321 L 247,321 L 248,320 L 249,320 L 250,319 L 251,319 L 252,318 L 259,318 L 259,317 L 260,316 L 287,316 L 288,317 L 288,318 L 296,318 L 293,318 L 292,317 L 288,317 L 287,316 L 280,316 L 279,315 Z" fill="white" stroke="black" stroke-width="1" /></svg>